nColumns=28
nRows=53
DataType=double
version=3
OpenSimVersion=4.1
endheader
time	ground_force_1_vx	ground_force_1_vy	ground_force_1_vz	ground_force_1_px	ground_force_1_py	ground_force_1_pz	ground_force_1_mx	ground_force_1_my	ground_force_1_mz	ground_force_2_vx	ground_force_2_vy	ground_force_2_vz	ground_force_2_px	ground_force_2_py	ground_force_2_pz	ground_force_2_mx	ground_force_2_my	ground_force_2_mz	ground_force_3_vx	ground_force_3_vy	ground_force_3_vz	ground_force_3_px	ground_force_3_py	ground_force_3_pz	ground_force_3_mx	ground_force_3_my	ground_force_3_mz
3.35	-2.54054	308.54	-29.2229	-0.230226	0.006	-0.384413	0	-0.21795	0	-3.09947	150.338	22.9225	-0.197095	0.006	-0.753645	0	0.51035	0	0	0	0	0	0	0	0	0	0
3.36	-1.0081	312.477	-29.6117	-0.233151	0.006	-0.385049	0	-0.253259	0	-2.66642	148.734	22.8975	-0.198106	0.006	-0.753455	0	0.573256	0	0	0	0	0	0	0	0	0	0
3.37	0.631526	316.877	-29.9829	-0.236049	0.006	-0.385692	0	-0.292529	0	-2.22676	147.521	22.9857	-0.199195	0.006	-0.753349	0	0.650823	0	0	0	0	0	0	0	0	0	0
3.38	2.35246	321.658	-30.3295	-0.238872	0.006	-0.386336	0	-0.333595	0	-1.79186	146.716	23.1966	-0.200364	0.006	-0.753329	0	0.742297	0	0	0	0	0	0	0	0	0	0
3.39	4.1298	326.745	-30.6468	-0.241574	0.006	-0.386972	0	-0.374922	0	-1.37175	146.332	23.5368	-0.201613	0.006	-0.753398	0	0.846622	0	0	0	0	0	0	0	0	0	0
3.4	5.94265	332.081	-30.9366	-0.24411	0.006	-0.387587	0	-0.41576	0	-0.977319	146.37	24.0085	-0.202934	0.006	-0.75355	0	0.96257	0	0	0	0	0	0	0	0	0	0
3.41	7.76751	337.647	-31.2122	-0.24644	0.006	-0.38817	0	-0.456257	0	-0.622653	146.836	24.6102	-0.204314	0.006	-0.75378	0	1.08879	0	0	0	0	0	0	0	0	0	0
3.42	9.57309	343.467	-31.4969	-0.248523	0.006	-0.388704	0	-0.497385	0	-0.325415	147.74	25.339	-0.205728	0.006	-0.754085	0	1.22377	0	0	0	0	0	0	0	0	0	0
3.43	11.3225	349.586	-31.817	-0.250324	0.006	-0.389173	0	-0.540794	0	-0.105205	149.101	26.19	-0.207148	0.006	-0.754462	0	1.36578	0	0	0	0	0	0	0	0	0	0
3.44	12.9781	356.012	-32.1929	-0.25182	0.006	-0.389567	0	-0.588501	0	0.0175405	150.941	27.1566	-0.208536	0.006	-0.754908	0	1.51278	0	0	0	0	0	0	0	0	0	0
3.45	14.5034	362.694	-32.6358	-0.252998	0.006	-0.389875	0	-0.642418	0	0.0207735	153.286	28.2331	-0.209849	0.006	-0.755425	0	1.66231	0	0	0	0	0	0	0	0	0	0
3.46	15.8645	369.531	-33.1476	-0.253861	0.006	-0.390095	0	-0.703992	0	-0.118084	156.156	29.4135	-0.21104	0.006	-0.756013	0	1.8115	0	0	0	0	0	0	0	0	0	0
3.47	17.0305	376.395	-33.7183	-0.254424	0.006	-0.390231	0	-0.773808	0	-0.419419	159.549	30.6894	-0.212061	0.006	-0.756667	0	1.95741	0	0	0	0	0	0	0	0	0	0
3.48	17.9761	383.149	-34.3258	-0.254707	0.006	-0.39029	0	-0.851513	0	-0.898424	163.441	32.0467	-0.212876	0.006	-0.757378	0	2.09735	0	0	0	0	0	0	0	0	0	0
3.49	18.6876	389.691	-34.9412	-0.254739	0.006	-0.390284	0	-0.936112	0	-1.56217	167.778	33.4655	-0.21346	0.006	-0.758129	0	2.22917	0	0	0	0	0	0	0	0	0	0
3.5	19.1675	395.97	-35.532	-0.25455	0.006	-0.390225	0	-1.02628	0	-2.40673	172.484	34.9198	-0.213806	0.006	-0.7589	0	2.35128	0	0	0	0	0	0	0	0	0	0
3.51	19.4354	401.977	-36.0672	-0.254174	0.006	-0.390127	0	-1.12065	0	-3.41344	177.456	36.3761	-0.213925	0.006	-0.759669	0	2.46277	0	0	0	0	0	0	0	0	0	0
3.52	19.5257	407.729	-36.5222	-0.253645	0.006	-0.390002	0	-1.21802	0	-4.54762	182.559	37.7928	-0.213842	0.006	-0.760411	0	2.56337	0	0	0	0	0	0	0	0	0	0
3.53	19.484	413.247	-36.8812	-0.252997	0.006	-0.389861	0	-1.31733	0	-5.76111	187.646	39.1251	-0.213589	0.006	-0.761103	0	2.65359	0	0	0	0	0	0	0	0	0	0
3.54	19.3613	418.556	-37.1413	-0.252262	0.006	-0.389712	0	-1.41774	0	-6.99643	192.566	40.3275	-0.213208	0.006	-0.761725	0	2.73466	0	0	0	0	0	0	0	0	0	0
3.55	19.2062	423.679	-37.3111	-0.251469	0.006	-0.38956	0	-1.51866	0	-8.19172	197.172	41.3567	-0.212741	0.006	-0.762262	0	2.80821	0	0	0	0	0	0	0	0	0	0
3.56	19.056	428.637	-37.4088	-0.250641	0.006	-0.389409	0	-1.61949	0	-9.28574	201.337	42.176	-0.212229	0.006	-0.762701	0	2.87631	0	0	0	0	0	0	0	0	0	0
3.57	18.9329	433.444	-37.4594	-0.249796	0.006	-0.389259	0	-1.71961	0	-10.223	204.964	42.7601	-0.211713	0.006	-0.763035	0	2.94128	0	0	0	0	0	0	0	0	0	0
3.58	18.8439	438.116	-37.4909	-0.248946	0.006	-0.38911	0	-1.81822	0	-10.9581	207.999	43.0977	-0.211229	0.006	-0.763261	0	3.00535	0	0	0	0	0	0	0	0	0	0
3.59	18.7827	442.656	-37.529	-0.248099	0.006	-0.388962	0	-1.9144	0	-11.4591	210.422	43.1915	-0.210807	0.006	-0.763376	0	3.07037	0	0	0	0	0	0	0	0	0	0
3.6	18.7308	447.056	-37.5938	-0.247262	0.006	-0.388816	0	-2.00705	0	-11.7094	212.232	43.0551	-0.210468	0.006	-0.763382	0	3.13778	0	0	0	0	0	0	0	0	0	0
3.61	18.6612	451.29	-37.6961	-0.246436	0.006	-0.388674	0	-2.09481	0	-11.7073	213.438	42.7088	-0.210224	0.006	-0.763281	0	3.20855	0	0	0	0	0	0	0	0	0	0
3.62	18.5409	455.321	-37.8357	-0.245622	0.006	-0.38854	0	-2.17608	0	-11.4653	214.059	42.1776	-0.210081	0.006	-0.763078	0	3.28315	0	0	0	0	0	0	0	0	0	0
3.63	18.3364	459.107	-37.9996	-0.244818	0.006	-0.388419	0	-2.24904	0	-11.0075	214.129	41.4899	-0.210035	0.006	-0.762781	0	3.36152	0	0	0	0	0	0	0	0	0	0
3.64	18.0219	462.616	-38.1635	-0.244022	0.006	-0.388319	0	-2.31183	0	-10.3662	213.693	40.6748	-0.210081	0.006	-0.762398	0	3.44311	0	0	0	0	0	0	0	0	0	0
3.65	17.5858	465.826	-38.2969	-0.243236	0.006	-0.388247	0	-2.36272	0	-9.57925	212.807	39.76	-0.210208	0.006	-0.761938	0	3.52708	0	0	0	0	0	0	0	0	0	0
3.66	17.0341	468.734	-38.3697	-0.242458	0.006	-0.388209	0	-2.40023	0	-8.68727	211.537	38.7706	-0.210401	0.006	-0.761412	0	3.61221	0	0	0	0	0	0	0	0	0	0
3.67	16.3876	471.354	-38.3556	-0.24169	0.006	-0.388211	0	-2.42327	0	-7.73177	209.956	37.7286	-0.210643	0.006	-0.760831	0	3.6968	0	0	0	0	0	0	0	0	0	0
3.68	15.6761	473.717	-38.2354	-0.240934	0.006	-0.388257	0	-2.43141	0	-6.7534	208.134	36.6531	-0.210913	0.006	-0.76021	0	3.77893	0	0	0	0	0	0	0	0	0	0
3.69	14.9302	475.872	-37.9996	-0.240189	0.006	-0.388348	0	-2.42506	0	-5.79049	206.137	35.56	-0.21119	0.006	-0.75956	0	3.85635	0	0	0	0	0	0	0	0	0	0
3.7	14.1746	477.885	-37.6479	-0.239455	0.006	-0.388481	0	-2.40548	0	-4.87717	204.026	34.4631	-0.211453	0.006	-0.758894	0	3.92685	0	0	0	0	0	0	0	0	0	0
3.71	13.4242	479.827	-37.1901	-0.238729	0.006	-0.388652	0	-2.37476	0	-4.0424	201.859	33.3735	-0.211685	0.006	-0.758221	0	3.98855	0	0	0	0	0	0	0	0	0	0
3.72	12.6866	481.771	-36.6448	-0.238009	0.006	-0.388855	0	-2.33559	0	-3.30911	199.693	32.3	-0.211869	0.006	-0.75755	0	4.04012	0	0	0	0	0	0	0	0	0	0
3.73	11.9678	483.775	-36.0366	-0.237293	0.006	-0.389081	0	-2.29088	0	-2.69329	197.584	31.2505	-0.211997	0.006	-0.75689	0	4.08085	0	0	0	0	0	0	0	0	0	0
3.74	11.2764	485.884	-35.3916	-0.23658	0.006	-0.389321	0	-2.24337	0	-2.20401	195.588	30.2322	-0.212063	0.006	-0.756247	0	4.11069	0	0	0	0	0	0	0	0	0	0
3.75	10.6246	488.116	-34.7338	-0.235873	0.006	-0.389568	0	-2.1956	0	-1.84473	193.75	29.2523	-0.212064	0.006	-0.755629	0	4.13009	0	0	0	0	0	0	0	0	0	0
3.76	10.0253	490.459	-34.0828	-0.235174	0.006	-0.389815	0	-2.14952	0	-1.61461	192.102	28.3157	-0.212004	0.006	-0.755041	0	4.13979	0	0	0	0	0	0	0	0	0	0
3.77	9.48583	492.867	-33.4535	-0.234486	0.006	-0.390055	0	-2.10636	0	-1.50872	190.66	27.4232	-0.211886	0.006	-0.754486	0	4.14088	0	0	0	0	0	0	0	0	0	0
3.78	9.00713	495.27	-32.856	-0.233813	0.006	-0.390285	0	-2.06668	0	-1.5173	189.416	26.5712	-0.211723	0.006	-0.753961	0	4.13458	0	0	0	0	0	0	0	0	0	0
3.79	8.58728	497.582	-32.2942	-0.233158	0.006	-0.390502	0	-2.03044	0	-1.62609	188.346	25.7529	-0.211527	0.006	-0.75346	0	4.12217	0	0	0	0	0	0	0	0	0	0
3.8	8.22618	499.721	-31.7675	-0.232522	0.006	-0.390705	0	-1.99714	0	-1.81787	187.419	24.9601	-0.211311	0.006	-0.752976	0	4.10498	0	0	0	0	0	0	0	0	0	0
3.81	7.92702	501.608	-31.2724	-0.231909	0.006	-0.390895	0	-1.96587	0	-2.07493	186.593	24.184	-0.211086	0.006	-0.752502	0	4.08428	0	0	0	0	0	0	0	0	0	0
3.82	7.69563	503.186	-30.8034	-0.23132	0.006	-0.391072	0	-1.9354	0	-2.38098	185.825	23.418	-0.210859	0.006	-0.752032	0	4.0612	0	0	0	0	0	0	0	0	0	0
3.83	7.53694	504.412	-30.3532	-0.230757	0.006	-0.391239	0	-1.90432	0	-2.72081	185.078	22.6592	-0.210634	0.006	-0.751562	0	4.03664	0	0	0	0	0	0	0	0	0	0
3.84	7.45054	505.26	-29.9141	-0.230222	0.006	-0.391399	0	-1.87124	0	-3.07903	184.325	21.9098	-0.210415	0.006	-0.751091	0	4.01136	0	0	0	0	0	0	0	0	0	0
3.85	7.42825	505.721	-29.4796	-0.229717	0.006	-0.391555	0	-1.83496	0	-3.43854	183.56	21.1795	-0.210202	0.006	-0.750623	0	3.98606	0	0	0	0	0	0	0	0	0	0
3.86	7.45318	505.8	-29.0436	-0.229242	0.006	-0.391708	0	-1.79473	0	-3.78097	182.798	20.4849	-0.209997	0.006	-0.75017	0	3.96126	0	0	0	0	0	0	0	0	0	0
3.87	7.4999	505.508	-28.6006	-0.228798	0.006	-0.391862	0	-1.75035	0	-4.08985	182.061	19.8469	-0.209796	0.006	-0.749744	0	3.93736	0	0	0	0	0	0	0	0	0	0
